<svg xmlns="http://www.w3.org/2000/svg" version="1.1" xmlns:xlink="http://www.w3.org/1999/xlink" xmlns:svgjs="http://svgjs.com/svgjs" width="1438" height="700" preserveAspectRatio="none" viewBox="0 0 1438 700"><g mask="url(&quot;#SvgjsMask1348&quot;)" fill="none"><rect width="1438" height="700" x="0" y="0" fill="url(#SvgjsLinearGradient1349)"></rect><path d="M85 700L785 0L987.5 0L287.5 700z" fill="url(#SvgjsLinearGradient1350)"></path><path d="M568.54 700L1268.54 0L1550.54 0L850.54 700z" fill="url(#SvgjsLinearGradient1350)"></path><path d="M1413 700L713 0L168.5 0L868.5 700z" fill="url(#SvgjsLinearGradient1351)"></path><path d="M875.46 700L175.46000000000004 0L-264.03999999999996 0L435.96000000000004 700z" fill="url(#SvgjsLinearGradient1351)"></path><path d="M846.3895475701005 700L1438 108.38954757010049L1438 700z" fill="url(#SvgjsLinearGradient1350)"></path><path d="M0 700L591.6104524298995 700L 0 108.38954757010049z" fill="url(#SvgjsLinearGradient1351)"></path></g><defs><mask id="SvgjsMask1348"><rect width="1438" height="700" fill="#ffffff"></rect></mask><linearGradient x1="50%" y1="100%" x2="50%" y2="0%" gradientUnits="userSpaceOnUse" id="SvgjsLinearGradient1349"><stop stop-color="#0e2a47" offset="0"></stop><stop stop-color="rgba(0, 13, 29, 1)" offset="1"></stop></linearGradient><linearGradient x1="0%" y1="100%" x2="100%" y2="0%" id="SvgjsLinearGradient1350"><stop stop-color="rgba(15, 70, 185, 0.2)" offset="0"></stop><stop stop-opacity="0" stop-color="rgba(15, 70, 185, 0.2)" offset="0.66"></stop></linearGradient><linearGradient x1="100%" y1="100%" x2="0%" y2="0%" id="SvgjsLinearGradient1351"><stop stop-color="rgba(15, 70, 185, 0.2)" offset="0"></stop><stop stop-opacity="0" stop-color="rgba(15, 70, 185, 0.2)" offset="0.66"></stop></linearGradient></defs></svg>