<svg xmlns="http://www.w3.org/2000/svg" version="1.1" xmlns:xlink="http://www.w3.org/1999/xlink" xmlns:svgjs="http://svgjs.com/svgjs" width="1440" height="560" preserveAspectRatio="none" viewBox="0 0 1440 560"><g mask="url(&quot;#SvgjsMask1542&quot;)" fill="none"><rect width="1440" height="560" x="0" y="0" fill="url(#SvgjsLinearGradient1543)"></rect><path d="M1440 0L1114.77 0L1440 104.68z" fill="rgba(255, 255, 255, .1)"></path><path d="M1114.77 0L1440 104.68L1440 174.4L1067.05 0z" fill="rgba(255, 255, 255, .075)"></path><path d="M1067.05 0L1440 174.4L1440 207.25L589.99 0z" fill="rgba(255, 255, 255, .05)"></path><path d="M589.99 0L1440 207.25L1440 457.49L491.71000000000004 0z" fill="rgba(255, 255, 255, .025)"></path><path d="M0 560L518.93 560L0 289.54z" fill="rgba(0, 0, 0, .1)"></path><path d="M0 289.54L518.93 560L647.39 560L0 193.90000000000003z" fill="rgba(0, 0, 0, .075)"></path><path d="M0 193.90000000000003L647.39 560L1075.78 560L0 141.14000000000004z" fill="rgba(0, 0, 0, .05)"></path><path d="M0 141.14000000000004L1075.78 560L1083.37 560L0 65.43000000000005z" fill="rgba(0, 0, 0, .025)"></path></g><defs><mask id="SvgjsMask1542"><rect width="1440" height="560" fill="#ffffff"></rect></mask><linearGradient x1="15.28%" y1="-39.29%" x2="84.72%" y2="139.29%" gradientUnits="userSpaceOnUse" id="SvgjsLinearGradient1543"><stop stop-color="#0e2a47" offset="0"></stop><stop stop-color="rgba(50, 211, 7, 1)" offset="1"></stop></linearGradient></defs></svg>